<?xml version="1.0" encoding="UTF-8" standalone="no"?>
<svg
   xmlns:dc="http://purl.org/dc/elements/1.1/"
   xmlns:cc="http://creativecommons.org/ns#"
   xmlns:rdf="http://www.w3.org/1999/02/22-rdf-syntax-ns#"
   xmlns:svg="http://www.w3.org/2000/svg"
   xmlns="http://www.w3.org/2000/svg"
   xmlns:sodipodi="http://sodipodi.sourceforge.net/DTD/sodipodi-0.dtd"
   xmlns:inkscape="http://www.inkscape.org/namespaces/inkscape"
   height="48"
   viewBox="0 96 960 960"
   width="48"
   version="1.1"
   id="svg837"
   sodipodi:docname="livre.svg"
   inkscape:version="0.92.4 (5da689c313, 2019-01-14)">
  <metadata
     id="metadata843">
    <rdf:RDF>
      <cc:Work
         rdf:about="">
        <dc:format>image/svg+xml</dc:format>
        <dc:type
           rdf:resource="http://purl.org/dc/dcmitype/StillImage" />
      </cc:Work>
    </rdf:RDF>
  </metadata>
  <defs
     id="defs841" />
  <sodipodi:namedview
     pagecolor="#ffffff"
     bordercolor="#000000"
     borderopacity="0.25"
     objecttolerance="10"
     gridtolerance="10"
     guidetolerance="10"
     inkscape:pageopacity="0"
     inkscape:pageshadow="2"
     inkscape:window-width="1920"
     inkscape:window-height="991"
     id="namedview839"
     showgrid="false"
     inkscape:snap-page="true"
     inkscape:zoom="11.75565"
     inkscape:cx="24.174406"
     inkscape:cy="22.87882"
     inkscape:window-x="-9"
     inkscape:window-y="-9"
     inkscape:window-maximized="1"
     inkscape:current-layer="svg837" />
  <path
     style="opacity:1;fill:#f14672;fill-opacity:1;fill-rule:nonzero;stroke:none;stroke-width:1.00157475;stroke-linecap:round;stroke-linejoin:miter;stroke-miterlimit:4;stroke-dasharray:none;stroke-dashoffset:0;stroke-opacity:1;paint-order:stroke fill markers"
     d="M 0 0 L 0 48 L 48 48 L 48 0 L 0 0 z M 12.400391 8 C 14.500391 8 16.542057 8.2829427 18.525391 8.8496094 C 20.508724 9.416276 22.366276 10.282552 24.099609 11.449219 C 25.799609 10.282552 27.624219 9.416276 29.574219 8.8496094 C 31.524219 8.2829427 33.532943 8 35.599609 8 C 37.161876 8 38.695066 8.1579427 40.197266 8.4746094 C 41.699466 8.791276 43.150781 9.2825521 44.550781 9.9492188 C 45.017448 10.182552 45.375 10.509115 45.625 10.925781 C 45.875 11.342448 46 11.800781 46 12.300781 L 46 35.449219 C 46 36.379019 45.625 37.087166 44.875 37.572266 C 44.125 38.057366 43.383724 38.066276 42.650391 37.599609 C 41.517057 37.132943 40.3619 36.757943 39.1875 36.474609 C 38.013133 36.191276 36.817509 36.050781 35.599609 36.050781 C 33.499609 36.050781 31.484115 36.399609 29.550781 37.099609 C 27.617448 37.799609 25.799609 38.766667 24.099609 40 C 22.399609 38.733333 20.550781 37.757552 18.550781 37.074219 C 16.550781 36.390885 14.500391 36.050781 12.400391 36.050781 C 11.182491 36.050781 9.9868667 36.2 8.8125 36.5 C 7.6381 36.8 6.4674479 37.166276 5.3007812 37.599609 C 4.5307812 37.966276 3.7872656 37.915885 3.0722656 37.449219 C 2.3572656 36.982552 2 36.315885 2 35.449219 L 2 12.300781 C 2 11.800781 2.116276 11.342448 2.3496094 10.925781 C 2.5829427 10.509115 2.933724 10.182552 3.4003906 9.9492188 C 4.8003906 9.2825521 6.2563646 8.791276 7.7695312 8.4746094 C 9.2826646 8.1579427 10.826691 8 12.400391 8 z M 12.400391 11 C 11.133724 11 9.8924479 11.157943 8.6757812 11.474609 C 7.4591146 11.791276 6.2333333 12.183724 5 12.650391 L 5 34.349609 C 6.0333333 33.882943 7.208724 33.540885 8.5253906 33.324219 C 9.8420573 33.107552 11.133724 33 12.400391 33 C 14.185924 33 15.922715 33.208333 17.613281 33.625 C 19.303848 34.041667 20.966276 34.666667 22.599609 35.5 L 22.599609 14.150391 C 21.099609 13.150391 19.472717 12.374219 17.71875 11.824219 C 15.964817 11.274219 14.192491 11 12.400391 11 z M 35.599609 11 C 33.799609 11 32.058333 11.274219 30.375 11.824219 C 28.691667 12.374219 27.099609 13.150391 25.599609 14.150391 L 25.599609 35.5 C 27.266276 34.666667 28.9 34.041667 30.5 33.625 C 32.1 33.208333 33.799609 33 35.599609 33 C 36.866276 33 38.175391 33.100781 39.525391 33.300781 C 40.875391 33.500781 42.033333 33.766276 43 34.099609 L 43 12.650391 C 41.866667 12.083724 40.668936 11.667057 39.408203 11.400391 C 38.147436 11.133724 36.878109 11 35.599609 11 z M 35 15.5 C 35.866667 15.5 36.717448 15.565885 37.550781 15.699219 C 38.384115 15.832552 39.2 15.999219 40 16.199219 L 40 18.400391 C 39.2 18.100391 38.390885 17.874609 37.574219 17.724609 C 36.757552 17.574609 35.9 17.5 35 17.5 C 33.733333 17.5 32.516276 17.657943 31.349609 17.974609 C 30.182943 18.291276 29.066667 18.734115 28 19.300781 L 28 16.900391 C 29.1 16.433724 30.225 16.082943 31.375 15.849609 C 32.525 15.616276 33.733333 15.5 35 15.5 z M 35 21 C 35.866667 21 36.717448 21.065885 37.550781 21.199219 C 38.384115 21.332552 39.2 21.499219 40 21.699219 L 40 23.900391 C 39.2 23.600391 38.390885 23.374609 37.574219 23.224609 C 36.757552 23.074609 35.9 23 35 23 C 33.733333 23 32.516276 23.157943 31.349609 23.474609 C 30.182943 23.791276 29.066667 24.234115 28 24.800781 L 28 22.400391 C 29.1 21.933724 30.225 21.582943 31.375 21.349609 C 32.525 21.116276 33.733333 21 35 21 z M 35 26.5 C 35.866667 26.5 36.717448 26.565885 37.550781 26.699219 C 38.384115 26.832552 39.2 26.999219 40 27.199219 L 40 29.400391 C 39.2 29.100391 38.390885 28.874609 37.574219 28.724609 C 36.757552 28.574609 35.9 28.5 35 28.5 C 33.733333 28.5 32.516276 28.649219 31.349609 28.949219 C 30.182943 29.249219 29.066667 29.700781 28 30.300781 L 28 27.849609 C 29.1 27.399609 30.225 27.062891 31.375 26.837891 C 32.525 26.612891 33.733333 26.5 35 26.5 z "
     transform="matrix(20,0,0,20,0,96)"
     id="rect845" />
</svg>
