<?xml version="1.0" encoding="UTF-8" standalone="no"?>
<svg
   xmlns:dc="http://purl.org/dc/elements/1.1/"
   xmlns:cc="http://creativecommons.org/ns#"
   xmlns:rdf="http://www.w3.org/1999/02/22-rdf-syntax-ns#"
   xmlns:svg="http://www.w3.org/2000/svg"
   xmlns="http://www.w3.org/2000/svg"
   xmlns:sodipodi="http://sodipodi.sourceforge.net/DTD/sodipodi-0.dtd"
   xmlns:inkscape="http://www.inkscape.org/namespaces/inkscape"
   height="48"
   viewBox="0 96 960 960"
   width="48"
   version="1.1"
   id="svg827"
   sodipodi:docname="mail.svg"
   inkscape:version="0.92.4 (5da689c313, 2019-01-14)">
  <metadata
     id="metadata833">
    <rdf:RDF>
      <cc:Work
         rdf:about="">
        <dc:format>image/svg+xml</dc:format>
        <dc:type
           rdf:resource="http://purl.org/dc/dcmitype/StillImage" />
      </cc:Work>
    </rdf:RDF>
  </metadata>
  <defs
     id="defs831" />
  <sodipodi:namedview
     pagecolor="#ffffff"
     bordercolor="#000000"
     borderopacity="0.25"
     objecttolerance="10"
     gridtolerance="10"
     guidetolerance="10"
     inkscape:pageopacity="0"
     inkscape:pageshadow="2"
     inkscape:window-width="1920"
     inkscape:window-height="991"
     id="namedview829"
     showgrid="false"
     inkscape:snap-page="true"
     inkscape:zoom="11.75565"
     inkscape:cx="25.021519"
     inkscape:cy="23.441118"
     inkscape:window-x="-9"
     inkscape:window-y="-9"
     inkscape:window-maximized="1"
     inkscape:current-layer="svg827" />
  <path
     style="opacity:1;fill:#69c812;fill-opacity:1;fill-rule:nonzero;stroke:none;stroke-width:1.00157475;stroke-linecap:round;stroke-linejoin:miter;stroke-miterlimit:4;stroke-dasharray:none;stroke-dashoffset:0;stroke-opacity:1;paint-order:stroke fill markers"
     d="M 0 0 L 0 48 L 48 48 L 48 0 L 0 0 z M 7 8 L 41 8 C 41.8 8 42.499609 8.3003906 43.099609 8.9003906 C 43.699609 9.5003906 44 10.2 44 11 L 44 37 C 44 37.8 43.699609 38.499609 43.099609 39.099609 C 42.499609 39.699609 41.8 40 41 40 L 7 40 C 6.2 40 5.5003906 39.699609 4.9003906 39.099609 C 4.3003906 38.499609 4 37.8 4 37 L 4 11 C 4 10.2 4.3003906 9.5003906 4.9003906 8.9003906 C 5.5003906 8.3003906 6.2 8 7 8 z M 7.25 11 L 24 21.900391 L 40.800781 11 L 7.25 11 z M 7 13.75 L 7 37 L 41 37 L 41 13.75 L 24 24.900391 L 7 13.75 z "
     transform="matrix(20,0,0,20,0,96)"
     id="rect835" />
</svg>
